# xmcd
#
# Track frame offsets:
#	150
#	17657
#	20005
#	35688
#	38770
#	54277
#	72537
#	74686
#	90363
#	104194
#	106415
#	123595
#	125779
#	140035
#	142248
#	160699
#	177805
#
# Disc length: 2560 seconds
# Revision: 0
# Processed by: cddbd v1.5.2PL0 Copyright (c) Steve Scherf et al.
# Submitted via: dBpowerAMP V12.0
#
DISCID=0409fe11
DTITLE=Bengt Huhta - Tales From The Old West
DYEAR=2012
DGENRE=Country
TTITLE0=Let's Discover The West
TTITLE1=Intermission: The Pioneers
TTITLE2=Roll Along Wagon Train
TTITLE3=Intermission: The Cowboys
TTITLE4=Midnight In Montana
TTITLE5=As I Watch The Water Flow
TTITLE6=Intermission: The Outlaws
TTITLE7=The Outlaw
TTITLE8=The El Paso Song
TTITLE9=Intermission: At The Barndance
TTITLE10=Blue Cowboy (Jazzy Jam)
TTITLE11=Intermission: The Railroad
TTITLE12=Old Choo-Choo
TTITLE13=Intermission: The Prairie
TTITLE14=Out On The Prairie Somewhere
TTITLE15=Fifth Cousin of Jesse James
TTITLE16=Best Wishes
EXTD=
EXTT0=
EXTT1=
EXTT2=
EXTT3=
EXTT4=
EXTT5=
EXTT6=
EXTT7=
EXTT8=
EXTT9=
EXTT10=
EXTT11=
EXTT12=
EXTT13=
EXTT14=
EXTT15=
EXTT16=
PLAYORDER=
